<?xml version="1.0" encoding="UTF-8" standalone="no"?>
<!DOCTYPE svg PUBLIC "-//W3C//DTD SVG 1.1//EN" "http://www.w3.org/Graphics/SVG/1.1/DTD/svg11.dtd">
<svg width="100%" height="100%" viewBox="0 0 128 128" version="1.1" xmlns="http://www.w3.org/2000/svg" xmlns:xlink="http://www.w3.org/1999/xlink" xml:space="preserve" xmlns:serif="http://www.serif.com/" style="fill-rule:evenodd;clip-rule:evenodd;stroke-linejoin:round;">
    <g transform="matrix(1.07182,0,0,1.07182,-4.59656,-3.77296)">
        <g transform="matrix(1.85409,0,0,1.85409,78.3511,23.791)">
            <path d="M3,12C9.268,12 12,9.363 12,3C12,9.363 14.713,12 21,12C14.713,12 12,14.713 12,21C12,14.713 9.268,12 3,12Z" style="fill:rgb(0,124,249);fill-rule:nonzero;stroke:rgb(0,124,249);stroke-width:1.5px;"/>
        </g>
        <g transform="matrix(1.24186,0,0,1.24186,64.6335,16.675)">
            <path d="M3,12C9.268,12 12,9.363 12,3C12,9.363 14.713,12 21,12C14.713,12 12,14.713 12,21C12,14.713 9.268,12 3,12Z" style="fill:rgb(0,124,249);fill-rule:nonzero;stroke:rgb(0,124,249);stroke-width:1.5px;"/>
        </g>
        <g transform="matrix(0.713771,1.99114e-17,-1.99114e-17,0.713771,70.9706,46.3814)">
            <path d="M3,12C9.268,12 12,9.363 12,3C12,9.363 14.713,12 21,12C14.713,12 12,14.713 12,21C12,14.713 9.268,12 3,12Z" style="fill:rgb(0,124,249);fill-rule:nonzero;stroke:rgb(0,124,249);stroke-width:1.5px;"/>
        </g>
        <g>
            <g transform="matrix(0.376022,0,0,0.376022,-10.2609,-2.27331)">
                <path d="M154.134,237.182C152.231,231.163 149.011,224.637 141.521,215.109C136.487,208.703 129.531,200.952 121.874,194.69C114.217,188.431 105.855,183.659 97.778,180.817C89.698,177.977 81.9,177.064 74.553,177.227C67.202,177.39 60.307,178.627 55.818,179.717C51.414,180.786 49.101,181.826 47.726,178.695C46.407,175.693 45.9,168.798 47.098,160.51C48.262,152.456 50.496,147.78 52.926,145.342C55.372,142.885 57.994,142.728 62.28,142.753C66.576,142.781 72.619,142.998 80.427,144.398C82.584,144.786 84.878,145.264 87.295,145.872L94.709,148.067L96.138,142.459C99.141,129.757 99.187,122.593 99.174,117.673L98.777,106.476L97.588,100.496L95.263,93.465L94.272,91.165C93.031,88.556 90.811,84.781 85.492,77.608C85.132,77.144 85.005,76.456 85.171,75.895C85.313,75.327 85.778,74.799 86.324,74.584C103.711,67.327 115.826,64.504 124.157,63.043C132.79,61.531 137.45,61.457 140.459,64.142C143.45,66.81 144.748,72.156 145.278,79.02C145.81,85.91 145.573,94.396 143.032,106.972C140.838,117.828 136.926,131.728 121.61,153.492C119.386,156.077 120.264,161.446 123.2,163.185L125.618,165.007C128.093,167.333 133.453,166.72 135.346,163.887C147.148,149.429 150.36,142.745 152.352,138.509L156.095,130.078L158.759,123.251C159.935,120.13 161.511,115.828 163.394,107.199C165.107,99.347 167.069,87.926 166.615,76.59C166.589,76.241 166.685,75.869 166.867,75.543L167.629,74.778L168.666,74.522C169.039,74.533 169.408,74.641 169.694,74.844C179.62,81.335 189.239,92.702 195.82,102.776C203.068,113.872 206.637,123.412 208.788,130.432C210.934,137.438 211.678,141.978 210.836,145.304C209.984,148.662 207.516,150.749 197.236,157.391C188.014,163.349 176.552,170.8 151.742,179.395C150.832,179.69 148.548,183.041 148.222,184.035C147.867,184.989 147.946,188.372 148.483,189.186C153.016,196.359 154.35,201.114 156.336,207.413C159.501,217.454 159.701,225.091 158.958,231.272L157.974,237.001L157.314,238.099L156.136,238.57L156.117,238.572L154.896,238.213L154.134,237.182Z"/>
            </g>
            <g transform="matrix(0.376022,0,0,0.376022,-10.2609,-2.27331)">
                <path d="M167.563,195.881C165.691,195.212 164.418,194.543 163.571,191.17C163.128,189.536 163.056,187.494 163.651,185.241C164.595,181.692 167.139,178.303 174.495,175.217C181.972,171.772 192.26,168.825 212.87,152.553C213.273,152.228 213.874,152.095 214.374,152.216C214.88,152.319 215.365,152.698 215.589,153.161L219.11,160.086L222.484,166.693L225.672,173.185L229.17,178.6L233.273,182.89C234.818,184.212 236.597,185.477 240.368,186.513C244.139,187.547 249.903,188.349 256.622,186.354C263.342,184.361 271.018,179.567 273.027,181.325C275.033,183.084 271.372,191.394 267.384,196.629C263.395,201.866 259.078,204.028 257.662,205.966C256.249,207.906 257.735,209.62 260.254,211.046C262.771,212.472 266.321,213.611 274.347,211.026C282.371,208.439 294.874,202.132 310.56,190.529C326.245,178.929 345.117,162.036 348.123,164.492C351.128,166.95 338.268,188.754 321.325,206.311C307.196,220.953 289.305,231.411 278.849,244.218C277.73,245.756 273.954,249.393 273.954,252.33C275.777,264.682 269.653,274.874 256.8,282.07C255.46,282.961 253.112,282.496 252.212,281.162C244.459,271.37 239.108,267.042 234.281,263.442L229.273,259.823C229.011,259.6 228.481,259.678 228.292,259.964C228.056,260.212 228.104,260.745 228.38,260.952L231.432,263.688C236.783,268.502 240.778,272.06 243.817,275.97C246.857,279.883 248.944,284.147 246.17,287.168C243.794,289.752 239.91,286.579 235.986,283.031C232.063,279.485 228.104,275.565 222.872,271.215C217.637,266.864 211.131,262.086 204.27,257.628C197.406,253.169 190.189,249.035 183.8,245.492C177.412,241.948 171.853,239.002 168.74,236.391C165.63,233.781 164.964,231.51 165.343,227.348C165.723,223.189 167.146,217.142 167.747,212.804C168.348,208.467 167.686,202.069 168.337,200.767C168.393,200.541 168.483,200.346 168.598,200.179C169.443,198.961 171.672,199.317 172.319,201.317C173.375,203.905 173.082,207.903 173.034,211.235C172.984,214.569 172.557,218.039 172.192,220.987C171.83,223.934 171.534,226.355 174.412,228.885C177.291,231.412 183.345,234.047 190.251,237.04L192.524,238.031C195.787,239.454 197.411,240.176 199.621,239.897C201.832,239.62 204.628,238.34 206.234,236.208C207.842,234.075 208.262,231.088 209.363,227.708C212.672,217.554 218.971,211.355 226.473,209.813C228.011,209.673 228.99,207.156 226.657,207.06C223.366,206.837 219.423,207.619 215.916,208.85C212.406,210.08 213.009,210.714 210.143,210.825C209.006,210.868 208.772,211.039 207.625,210.545C207.047,210.272 206.7,210.67 206.227,211.105C206.032,211.469 206.326,211.887 206.506,212.503C208.677,215.038 206.874,216.817 206.506,217.538C203.364,223.69 196.552,216.724 190.555,212.761C184.033,208.451 178.76,207.102 182.104,201.947L183.503,200.157C185.069,198.59 188.159,199.354 188.09,198.702C188.073,198.046 185.243,197.572 184.622,197.36L181.234,197.173C178.804,196.912 177.517,196.642 174.875,196.597C173.705,196.539 168.734,196.203 167.563,195.881ZM253.177,276.645C253.506,277.046 254.043,277.318 254.56,277.345C255.079,277.387 255.646,277.191 256.028,276.837C258.54,274.575 259.574,271.716 259.596,268.709C259.617,265.225 257.641,261.973 254.716,260.405C251.851,258.778 248.296,258.987 246.787,261.331C245.216,263.602 245.671,267.248 247.214,269.612L253.177,276.645Z"/>
            </g>
            <g transform="matrix(0.376022,0,0,0.376022,-10.2609,-2.27331)">
                <path d="M194.938,206.572C198.535,208.833 200.493,210.923 199.631,212.613C197.783,216.231 195.397,213.337 191.868,211.006C188.033,208.471 185.647,207.988 187.614,204.958C188.801,203.127 191.388,204.345 194.938,206.572Z" style="fill:rgb(0,124,249);stroke:black;stroke-width:0.37px;stroke-linejoin:miter;stroke-miterlimit:79.8403;"/>
            </g>
        </g>
    </g>
</svg>
